<svg xmlns="http://www.w3.org/2000/svg" width="221.922" height="219.197" viewBox="0 0 221.922 219.197"><defs><style>.a,.f,.l{fill:#1d1d1b;}.a{opacity:0.06;}.b{fill:#2e364d;}.c,.r,.s{fill:#231f20;}.c,.o,.r,.x{opacity:0.17;}.c,.s{mix-blend-mode:overlay;isolation:isolate;}.d{fill:#f6f6f6;}.e{fill:none;stroke:#ededed;stroke-miterlimit:10;stroke-width:0.262px;}.f{opacity:0.1;}.g{fill:#706f6f;}.h{fill:#333;}.i{fill:#ededed;}.j{fill:#dadada;}.k{fill:#c6c6c6;}.ac,.m,.o{fill:#fff;}.n{fill:#486fb5;}.p{fill:#ffbe92;}.q{fill:#15c39a;}.s{opacity:0.08;}.t{fill:#ffb380;}.u{fill:#3f2e18;}.v{fill:#332517;}.w{fill:#5b4227;}.x{fill:#383838;}.y{fill:#ff6584;}.z{fill:#e24a69;}.aa{fill:#432918;}.ab{fill:#b17f4a;}.ac{opacity:0.2;}</style></defs><g transform="translate(-122.057 -275.736) rotate(31)"><path class="a" d="M347.832,94.943a7.136,7.136,0,0,0-4.1,1.1c-3.663,2.289-5.295,6.036-6.6,9.816,0,.014-.012.021-.015.035-3.149,10.12,5.27,42.634,14.552,76.194-.156,1.546-.268,3.132-.315,4.738q-.025.847-.026,1.7c0,.4.009.8.018,1.195-8.351,29.626-14.716,52.461-14.69,70-.031.61-.027,1.209,0,1.827,0,.022,0,.041.005.063.286,5.711,4.05,14.207,11.1,14.345,5.6.11,12.22-6.4,16.094-9.753,1.533-1.324,16.682-15.491,15.9-16.316,6.8,7.194,16.459,18.482,27.227,11.367,16.309-10.775,20.144-35.82,22.715-53.042,1.743-11.674,1.085-23.729,1.267-35.483.178-11.573-3.211-23.242-7.907-33.807-3.238-7.285-6.873-14.611-12.186-20.739-3.56-4.106-11.379-12.4-17.7-9.437-2.033.952-14.783,12.917-13.516,14.547a155.107,155.107,0,0,0-17.437-19.4C358.8,100.759,353.214,95.117,347.832,94.943Z" transform="translate(38.87 19.139)"/><g transform="translate(295.662 118.25)"><path class="b" d="M327.912,251.647c-.747-19.43,10.814-45.967,24.73-81.982,5.853,1.237,17.618,1.841,18.91,2.521C385.22,199.4,328.543,268.069,327.912,251.647Z" transform="translate(-284.968 -93.445)"/><path class="c" d="M334.657,235.393A397.409,397.409,0,0,0,359.1,172.1c5.853,1.237,19.819,22.587,21.111,23.266C382.4,196.931,328.153,248.295,334.657,235.393Z" transform="translate(-282.898 -92.636)"/><path class="b" d="M329.536,242.467s36.578-40.607,59.109-67.5a74.346,74.346,0,0,1,13.093,3.961c2.188,1.562.336,35.692,3.111,39.239-9.078,12.647-38.292,38.345-59.5,45.11C337.194,265.876,323.03,255.369,329.536,242.467Z" transform="translate(-284.969 -91.685)"/><path class="c" d="M403.062,207.4c-9.078,12.647-38.292,38.345-59.5,45.11-3.055.975-6.958.107-10.3-2.041C357.151,243.754,345.428,250.022,403.062,207.4Z" transform="translate(-283.182 -80.919)"/><path class="b" d="M352.7,205.686c5.853-1.236,24.985-15.311,26.277-15.99,2.188-1.564-47.32-76.318-50.4-69.178C323.878,131.413,338.786,169.672,352.7,205.686Z" transform="translate(-285.029 -109.918)"/><path class="c" d="M350.116,201.8c5.853-1.236,24.985-15.311,26.277-15.99,2.188-1.564-41.955-61.095-40.888-53.395C336.806,141.821,351.656,164.179,350.116,201.8Z" transform="translate(-282.443 -106.036)"/><path class="b" d="M329.536,133.647s36.578,40.607,59.109,67.5a74.346,74.346,0,0,0,13.093-3.961c2.188-1.562,2.38-29.923,5.156-33.47-9.078-12.647-40.336-44.114-61.549-50.879C337.194,110.238,323.03,120.746,329.536,133.647Z" transform="translate(-284.969 -112.44)"/><path class="c" d="M405.5,163.717c-9.078-12.647-40.336-44.114-61.549-50.879-3.554-1.133-8.251.225-11.88,3.187C340.608,115.32,362.021,120.083,405.5,163.717Z" transform="translate(-283.576 -112.44)"/><g transform="translate(0 34.602)"><path class="d" d="M382.529,230.651a2.276,2.276,0,0,1-2.275,2.276l-47.418-.016a2.493,2.493,0,0,1-2.491-2.493V145.577a2.491,2.491,0,0,1,2.491-2.492l47.418.016a2.277,2.277,0,0,1,2.275,2.278Z" transform="translate(-284.149 -136.87)"/><path class="e" d="M381.492,230.444a1.446,1.446,0,0,1-1.445,1.445l-47.418-.016a1.664,1.664,0,0,1-1.661-1.662V145.37a1.663,1.663,0,0,1,1.661-1.661l47.418.016a1.448,1.448,0,0,1,1.445,1.447Z" transform="translate(-283.943 -136.663)"/><path class="f" d="M330.757,143.926a2.483,2.483,0,0,0-.412,1.372v84.841a2.486,2.486,0,0,0,.412,1.372,2.86,2.86,0,0,0,1.249-2.291v-83A2.86,2.86,0,0,0,330.757,143.926Z" transform="translate(-284.149 -136.591)"/><path class="g" d="M333,154.948v60.376a.83.83,0,0,1-.831.831h-1.826V154.117h1.826A.831.831,0,0,1,333,154.948Z" transform="translate(-284.149 -133.208)"/><g transform="translate(51.114 11.714)"><path class="h" d="M.43,0H4.16a.431.431,0,0,1,.431.431V4.39a.43.43,0,0,1-.43.43H.431A.431.431,0,0,1,0,4.39V.43A.43.43,0,0,1,.43,0Z" transform="translate(3.508 36.29)"/><rect class="h" width="4.591" height="4.82" rx="0.43" transform="translate(3.508 47.217)"/><path class="h" d="M.43,0h3.73a.431.431,0,0,1,.431.431V4.39a.43.43,0,0,1-.43.43H.431A.431.431,0,0,1,0,4.39V.43A.43.43,0,0,1,.43,0Z" transform="translate(3.508 41.753)"/><path class="h" d="M.43,0H4.161a.43.43,0,0,1,.43.43V4.39a.43.43,0,0,1-.43.43H.431A.431.431,0,0,1,0,4.389V.43A.43.43,0,0,1,.43,0Z" transform="translate(3.508 58.144)"/><rect class="h" width="4.591" height="4.82" rx="0.43" transform="translate(3.508 52.68)"/><path class="h" d="M.43,0h3.73a.43.43,0,0,1,.43.43V4.39a.43.43,0,0,1-.43.43H.431A.431.431,0,0,1,0,4.39V.43A.43.43,0,0,1,.43,0Z" transform="translate(3.508 30.827)"/><rect class="h" width="4.591" height="4.82" rx="0.43" transform="translate(3.508 19.9)"/><rect class="h" width="4.591" height="4.82" rx="0.43" transform="translate(3.508 14.437)"/><path class="h" d="M.43,0H4.16a.431.431,0,0,1,.431.431V4.39a.43.43,0,0,1-.43.43H.43A.431.431,0,0,1,0,4.39V.43A.43.43,0,0,1,.43,0Z" transform="translate(3.508 25.363)"/><path class="h" d="M.43,0H4.16a.431.431,0,0,1,.431.431V4.39a.43.43,0,0,1-.43.43H.43A.431.431,0,0,1,0,4.39V.43A.43.43,0,0,1,.43,0Z" transform="translate(19.21 35.157)"/><path class="h" d="M.43,0H4.16a.431.431,0,0,1,.431.431V4.39a.43.43,0,0,1-.43.43H.431A.431.431,0,0,1,0,4.39V.43A.43.43,0,0,1,.43,0Z" transform="translate(19.21 46.084)"/><path class="h" d="M.43,0H4.16a.431.431,0,0,1,.431.431V4.39a.43.43,0,0,1-.43.43H.431A.431.431,0,0,1,0,4.39V.43A.43.43,0,0,1,.43,0Z" transform="translate(19.21 40.62)"/><rect class="h" width="4.591" height="4.821" rx="0.43" transform="translate(19.21 51.547)"/><path class="h" d="M.43,0H4.16a.431.431,0,0,1,.431.431V4.39a.43.43,0,0,1-.43.43H.431A.431.431,0,0,1,0,4.39V.43A.43.43,0,0,1,.43,0Z" transform="translate(19.21 29.694)"/><path class="h" d="M.43,0H4.161a.43.43,0,0,1,.43.43V4.39a.43.43,0,0,1-.43.43H.431A.431.431,0,0,1,0,4.39V.43A.43.43,0,0,1,.43,0Z" transform="translate(8.742 12.731)"/><path class="h" d="M.431,0h3.73a.43.43,0,0,1,.43.43V4.39a.43.43,0,0,1-.43.43H.43A.431.431,0,0,1,0,4.39V.431A.431.431,0,0,1,.431,0Z" transform="translate(13.976 64.521)"/><path class="h" d="M.43,0H4.161a.43.43,0,0,1,.43.43V4.39a.43.43,0,0,1-.43.43H.431A.431.431,0,0,1,0,4.39V.43A.43.43,0,0,1,.43,0Z" transform="translate(3.508 63.607)"/><path class="h" d="M.43,0h3.73a.43.43,0,0,1,.43.43V4.39a.43.43,0,0,1-.43.43H.431A.431.431,0,0,1,0,4.39V.43A.43.43,0,0,1,.43,0Z" transform="translate(8.742 67.365)"/><path class="h" d="M.431,0h3.73a.431.431,0,0,1,.431.431V4.39a.43.43,0,0,1-.431.431H.43A.431.431,0,0,1,0,4.39V.431A.431.431,0,0,1,.431,0Z" transform="translate(19.21 62.474)"/><path class="h" d="M.43,0H4.16a.431.431,0,0,1,.431.431V4.39a.43.43,0,0,1-.43.43H.431A.431.431,0,0,1,0,4.39V.43A.43.43,0,0,1,.43,0Z" transform="translate(19.21 57.011)"/><rect class="h" width="4.591" height="4.82" rx="0.43" transform="translate(13.976 59.058)"/><rect class="h" width="4.591" height="4.82" rx="0.43" transform="translate(8.742 40.048)"/><rect class="h" width="4.591" height="4.821" rx="0.43" transform="translate(8.742 34.584)"/><rect class="h" width="4.591" height="4.821" rx="0.43" transform="translate(8.742 45.511)"/><path class="h" d="M.43,0H4.161a.431.431,0,0,1,.431.431V4.39a.43.43,0,0,1-.43.43H.43A.431.431,0,0,1,0,4.39V.43A.43.43,0,0,1,.43,0Z" transform="translate(8.742 29.121)"/><path class="h" d="M.43,0H4.161a.431.431,0,0,1,.431.431V4.39a.43.43,0,0,1-.43.43H.43A.431.431,0,0,1,0,4.39V.43A.43.43,0,0,1,.43,0Z" transform="translate(8.742 50.975)"/><path class="h" d="M.43,0H4.161a.43.43,0,0,1,.43.43V4.39a.43.43,0,0,1-.43.43H.431A.431.431,0,0,1,0,4.39V.43A.43.43,0,0,1,.43,0Z" transform="translate(8.742 18.194)"/><rect class="h" width="4.591" height="4.821" rx="0.43" transform="translate(8.742 56.438)"/><path class="h" d="M.43,0h2a.431.431,0,0,1,.431.431V3.545a.43.43,0,0,1-.43.43h-2A.43.43,0,0,1,0,3.545V.43A.43.43,0,0,1,.43,0Z" transform="translate(0 4.887)"/><path class="h" d="M.43,0h2a.43.43,0,0,1,.43.43V3.545a.43.43,0,0,1-.43.43h-2A.431.431,0,0,1,0,3.545V.43A.43.43,0,0,1,.43,0Z" transform="translate(0 9.531)"/><rect class="h" width="4.591" height="4.82" rx="0.43" transform="translate(8.742 23.658)"/><path class="h" d="M.43,0h3.73a.43.43,0,0,1,.43.43V4.39a.43.43,0,0,1-.43.43H.431A.431.431,0,0,1,0,4.39V.43A.43.43,0,0,1,.431,0Z" transform="translate(13.976 53.594)"/><path class="h" d="M.43,0h3.73a.43.43,0,0,1,.43.43V4.39a.43.43,0,0,1-.43.43H.431A.431.431,0,0,1,0,4.39V.43A.43.43,0,0,1,.43,0Z" transform="translate(13.976 26.278)"/><path class="h" d="M.43,0h3.73a.43.43,0,0,1,.43.43V4.39a.43.43,0,0,1-.43.43H.431A.431.431,0,0,1,0,4.39V.43A.43.43,0,0,1,.43,0Z" transform="translate(13.976 31.741)"/><rect class="h" width="4.591" height="4.82" rx="0.43" transform="translate(13.976 20.814)"/><path class="h" d="M.43,0h3.73a.43.43,0,0,1,.43.43V4.39a.43.43,0,0,1-.43.43H.43A.431.431,0,0,1,0,4.39V.43A.43.43,0,0,1,.43,0Z" transform="translate(13.976 37.204)"/><rect class="h" width="4.591" height="4.82" rx="0.43" transform="translate(13.976 15.351)"/><path class="h" d="M.43,0h3.73a.43.43,0,0,1,.43.43V4.39a.43.43,0,0,1-.43.43H.43A.431.431,0,0,1,0,4.39V.43A.43.43,0,0,1,.43,0Z" transform="translate(13.976 42.668)"/><path class="h" d="M.43,0H4.161a.431.431,0,0,1,.431.431V4.39a.43.43,0,0,1-.43.43H.43A.431.431,0,0,1,0,4.39V.43A.43.43,0,0,1,.43,0Z" transform="translate(8.742 61.901)"/><rect class="h" width="4.591" height="4.82" rx="0.43" transform="translate(19.21 24.231)"/><path class="h" d="M.43,0h3.73a.431.431,0,0,1,.431.431V4.39a.43.43,0,0,1-.43.43H.431A.431.431,0,0,1,0,4.39V.43A.43.43,0,0,1,.43,0Z" transform="translate(13.976 48.131)"/><rect class="h" width="2.295" height="5.959" rx="0.43" transform="translate(27.075 12.509)"/><path class="h" d="M.43,0H4.16a.431.431,0,0,1,.431.431V4.39a.43.43,0,0,1-.43.43H.43A.431.431,0,0,1,0,4.39V.43A.43.43,0,0,1,.43,0Z" transform="translate(19.21 18.767)"/><rect class="h" width="4.927" height="26.674" rx="0.43" transform="translate(24.444 30.037)"/><path class="h" d="M.43,0H4.5a.431.431,0,0,1,.431.431V4.39a.43.43,0,0,1-.43.43H.431A.431.431,0,0,1,0,4.39V.43A.43.43,0,0,1,.43,0Z" transform="translate(24.444 24.573)"/><path class="h" d="M.43,0H4.5a.43.43,0,0,1,.43.43V4.39a.43.43,0,0,1-.43.43H.431A.431.431,0,0,1,0,4.39V.43A.43.43,0,0,1,.43,0Z" transform="translate(24.444 19.11)"/><path class="h" d="M.43,0H1.865A.43.43,0,0,1,2.3.43v5.1a.43.43,0,0,1-.43.43H.431A.431.431,0,0,1,0,5.528V.43A.43.43,0,0,1,.43,0Z" transform="translate(27.075 5.908)"/><path class="h" d="M.43,0H1.558a.431.431,0,0,1,.431.431v5.1a.43.43,0,0,1-.43.43H.43A.43.43,0,0,1,0,5.528V.43A.43.43,0,0,1,.43,0Z" transform="translate(24.444 5.907)"/><path class="h" d="M.43,0H4.5a.431.431,0,0,1,.431.431V4.39a.43.43,0,0,1-.43.43H.43A.431.431,0,0,1,0,4.39V.43A.43.43,0,0,1,.43,0Z" transform="translate(24.444 62.817)"/><path class="h" d="M.43,0H4.5a.431.431,0,0,1,.431.431V4.665a.43.43,0,0,1-.43.43H.43A.431.431,0,0,1,0,4.665V.43A.43.43,0,0,1,.43,0Z" transform="translate(24.444 73.744)"/><path class="h" d="M.431,0h2a.43.43,0,0,1,.43.43V3.788a.43.43,0,0,1-.43.43h-2A.43.43,0,0,1,0,3.788V.431A.431.431,0,0,1,.431,0Z" transform="translate(0 74.545)"/><path class="h" d="M.431,0H1.865A.43.43,0,0,1,2.3.43V4.825a.431.431,0,0,1-.431.431H.43A.43.43,0,0,1,0,4.826V.431A.43.43,0,0,1,.43,0Z" transform="translate(27.075 0.009)"/><path class="h" d="M336.671,147.214v7.756a.573.573,0,0,0,.573.573h3.444a.572.572,0,0,0,.573-.573v-7.182a.573.573,0,0,0-.573-.574Z" transform="translate(-333.163 -147.213)"/><path class="h" d="M348.46,159.3a.573.573,0,0,0,.573.574h3.444a.574.574,0,0,0,.574-.574V147.792a.573.573,0,0,0-.573-.573h-3.5a.521.521,0,0,0-.521.521Z" transform="translate(-329.25 -147.212)"/><path class="h" d="M344.53,147.217v8.666a.574.574,0,0,0,.573.574h3.446a.574.574,0,0,0,.573-.574v-8.093a.573.573,0,0,0-.573-.573Z" transform="translate(-330.554 -147.212)"/><path class="h" d="M340.6,147.215v6.048a.575.575,0,0,0,.573.574h3.446a.573.573,0,0,0,.573-.573V147.79a.574.574,0,0,0-.573-.574Z" transform="translate(-331.859 -147.213)"/><rect class="h" width="4.927" height="4.82" rx="0.43" transform="translate(24.444 57.354)"/><path class="h" d="M.43,0h3.73a.43.43,0,0,1,.43.43V4.39a.431.431,0,0,1-.431.431H.43A.431.431,0,0,1,0,4.39V.43A.431.431,0,0,1,.43,0Z" transform="translate(3.508 8.973)"/><path class="h" d="M.43,0h2a.431.431,0,0,1,.431.431V3.545a.43.43,0,0,1-.43.43h-2A.431.431,0,0,1,0,3.545V.43A.43.43,0,0,1,.43,0Z" transform="translate(0 18.819)"/><path class="h" d="M.43,0h2a.43.43,0,0,1,.43.43V3.545a.43.43,0,0,1-.43.43h-2A.431.431,0,0,1,0,3.545V.43A.43.43,0,0,1,.43,0Z" transform="translate(0 32.75)"/><path class="h" d="M.43,0h2a.431.431,0,0,1,.431.431V3.546a.43.43,0,0,1-.43.43h-2A.431.431,0,0,1,0,3.545V.43A.43.43,0,0,1,.43,0Z" transform="translate(0 28.106)"/><rect class="h" width="2.865" height="3.976" rx="0.43" transform="translate(0 23.462)"/><rect class="h" width="2.865" height="3.976" rx="0.43" transform="translate(0 14.175)"/><path class="h" d="M.431,0h3.73a.43.43,0,0,1,.43.43V4.39a.431.431,0,0,1-.431.431H.43A.431.431,0,0,1,0,4.39V.431A.431.431,0,0,1,.431,0Z" transform="translate(19.21 13.304)"/><path class="h" d="M.43,0H4.161a.43.43,0,0,1,.43.43V4.39a.43.43,0,0,1-.43.43H.431A.431.431,0,0,1,0,4.39V.43A.43.43,0,0,1,.43,0Z" transform="translate(8.742 7.268)"/><rect class="h" width="4.591" height="4.82" rx="0.43" transform="translate(13.976 9.887)"/><path class="h" d="M.43,0h2a.43.43,0,0,1,.43.43V3.545a.43.43,0,0,1-.43.43h-2A.431.431,0,0,1,0,3.545V.43A.43.43,0,0,1,.43,0Z" transform="translate(0 37.394)"/><path class="h" d="M.43,0h2a.431.431,0,0,1,.431.431V3.545a.43.43,0,0,1-.43.43h-2A.431.431,0,0,1,0,3.545V.43A.43.43,0,0,1,.43,0Z" transform="translate(0 65.257)"/><path class="h" d="M.43,0h2a.431.431,0,0,1,.431.431V3.545a.43.43,0,0,1-.43.43h-2A.431.431,0,0,1,0,3.545V.43A.43.43,0,0,1,.43,0Z" transform="translate(0 69.901)"/><path class="h" d="M.43,0h2a.43.43,0,0,1,.43.43V3.545a.43.43,0,0,1-.43.43h-2A.431.431,0,0,1,0,3.545V.43A.43.43,0,0,1,.43,0Z" transform="translate(0 60.613)"/></g></g></svg>